<?xml version="1.0" encoding="UTF-8" standalone="no"?>
<svg width="487px" height="672px" viewBox="0 0 487 672" version="1.1" xmlns="http://www.w3.org/2000/svg" xmlns:xlink="http://www.w3.org/1999/xlink" xmlns:sketch="http://www.bohemiancoding.com/sketch/ns">
    <!-- Generator: Sketch 3.3.2 (12043) - http://www.bohemiancoding.com/sketch -->
    <title>swiggle</title>
    <desc>Created with Sketch.</desc>
    <defs></defs>
    <g id="Page-1" stroke="none" stroke-width="1" fill="none" fill-rule="evenodd" sketch:type="MSPage">
        <g id="swiggle" sketch:type="MSLayerGroup" fill="#000000">
            <path d="M486.671,666.873 L442.843,666.873 L442.843,601.131 L372.714,671.263 L333.276,631.825 L407.795,469.614 L206.146,671.263 L166.71,631.825 L342.056,368.825 L39.617,671.263 L0.143,631.825 L257.898,286.417 L39.617,504.697 L0.143,465.259 L172.846,204.899 L39.617,338.131 L0.143,298.693 L75.556,135.625 L39.617,171.565 L0.143,132.127 L0.143,0.609 L43.969,0.609 L43.969,88.299 L114.1,18.168 L153.573,57.606 L79.052,219.781 L280.667,18.168 L320.141,57.606 L144.794,320.606 L447.232,18.168 L486.67,57.606 L191.263,440.705 L447.232,184.734 L486.67,224.172 L314.003,484.531 L447.232,351.3 L486.67,390.738 L411.292,553.771 L447.231,517.83 L486.669,557.303 L486.669,666.873 L486.671,666.873 Z" id="Shape" sketch:type="MSShapeGroup"></path>
        </g>
    </g>
</svg>